<svg width="26" height="26" viewBox="0 0 26 26" fill="none" xmlns="http://www.w3.org/2000/svg">
<path d="M5.96104 5.01295L5.95801 7.31283V18.6924C5.95801 20.6369 7.53433 22.2132 9.47884 22.2132L18.8132 22.2135C18.4784 23.16 17.5757 23.8382 16.5144 23.8382H9.47884C6.63688 23.8382 4.33301 21.5344 4.33301 18.6924V7.31283C4.33301 6.25039 5.01275 5.34671 5.96104 5.01295ZM19.2288 2.16699C20.575 2.16699 21.6663 3.2583 21.6663 4.60449V18.6878C21.6663 20.034 20.575 21.1253 19.2288 21.1253H9.47884C8.13265 21.1253 7.04134 20.034 7.04134 18.6878V4.60449C7.04134 3.2583 8.13265 2.16699 9.47884 2.16699H19.2288ZM19.2288 3.79199H9.47884C9.03011 3.79199 8.66634 4.15576 8.66634 4.60449V18.6878C8.66634 19.1365 9.03011 19.5003 9.47884 19.5003H19.2288C19.6776 19.5003 20.0413 19.1365 20.0413 18.6878V4.60449C20.0413 4.15576 19.6776 3.79199 19.2288 3.79199Z" fill="#333333"/>
</svg>
