<svg width="36" height="36" viewBox="0 0 36 36" fill="none" xmlns="http://www.w3.org/2000/svg">
<circle cx="18" cy="18" r="18" fill="white"/>
<path d="M10.3971 10.5538L10.4697 10.4697C10.7359 10.2034 11.1526 10.1792 11.4462 10.3971L11.5303 10.4697L18 16.939L24.4697 10.4697C24.7626 10.1768 25.2374 10.1768 25.5303 10.4697C25.8232 10.7626 25.8232 11.2374 25.5303 11.5303L19.061 18L25.5303 24.4697C25.7966 24.7359 25.8208 25.1526 25.6029 25.4462L25.5303 25.5303C25.2641 25.7966 24.8474 25.8208 24.5538 25.6029L24.4697 25.5303L18 19.061L11.5303 25.5303C11.2374 25.8232 10.7626 25.8232 10.4697 25.5303C10.1768 25.2374 10.1768 24.7626 10.4697 24.4697L16.939 18L10.4697 11.5303C10.2034 11.2641 10.1792 10.8474 10.3971 10.5538L10.4697 10.4697L10.3971 10.5538Z" fill="#333333"/>
</svg>
