<svg width="26" height="26" viewBox="0 0 26 26" fill="none" xmlns="http://www.w3.org/2000/svg">
<path d="M6.71734 22.7505H2.00078V7.5618H6.71734V22.7505ZM4.35652 5.48992C2.84832 5.48992 1.625 4.2407 1.625 2.7325C1.625 2.00805 1.91278 1.31328 2.42504 0.801021C2.9373 0.288761 3.63208 0.000976562 4.35652 0.000976562C5.08097 0.000976562 5.77574 0.288761 6.288 0.801021C6.80026 1.31328 7.08805 2.00805 7.08805 2.7325C7.08805 4.2407 5.86422 5.48992 4.35652 5.48992ZM24.3699 22.7505H19.6635V15.3567C19.6635 13.5946 19.628 11.3348 17.2113 11.3348C14.7591 11.3348 14.3833 13.2493 14.3833 15.2298V22.7505H9.6718V7.5618H14.1954V9.63367H14.2614C14.8911 8.44031 16.4293 7.18094 18.7241 7.18094C23.4975 7.18094 24.375 10.3243 24.375 14.4071V22.7505H24.3699Z" fill="#333333"/>
</svg>
