<svg width="26" height="26" viewBox="0 0 26 26" fill="none" xmlns="http://www.w3.org/2000/svg">
<path d="M5.68783 4.33301H20.3128C22.1902 4.33301 23.7245 5.8025 23.8281 7.65405L23.8337 7.85384V18.1455C23.8337 20.0229 22.3641 21.5571 20.5126 21.6608L20.3128 21.6663H5.68783C3.81038 21.6663 2.27614 20.1968 2.17256 18.3453L2.16699 18.1455V7.85384C2.16699 5.97639 3.63648 4.44215 5.48804 4.33858L5.68783 4.33301H20.3128H5.68783ZM22.2087 10.1538L13.3787 14.802C13.1757 14.9088 12.9387 14.9241 12.726 14.8478L12.6219 14.802L3.79199 10.1548V18.1455C3.79199 19.1402 4.55803 19.956 5.53233 20.0351L5.68783 20.0413H20.3128C21.3075 20.0413 22.1233 19.2753 22.2024 18.301L22.2087 18.1455V10.1538ZM20.3128 5.95801H5.68783C4.69314 5.95801 3.87737 6.72404 3.79828 7.69835L3.79199 7.85384V8.31859L13.0003 13.1649L22.2087 8.31751V7.85384C22.2087 6.85916 21.4426 6.04339 20.4683 5.96429L20.3128 5.95801Z" fill="#333333"/>
</svg>
