<svg width="23" height="23" viewBox="0 0 23 23" fill="none" xmlns="http://www.w3.org/2000/svg">
<path d="M19.3426 3.30586C17.2148 1.17305 14.3812 0 11.3699 0C5.1543 0 0.0964844 5.05781 0.0964844 11.2734C0.0964844 13.259 0.614453 15.1988 1.59961 16.9102L0 22.75L5.97695 21.1809C7.62227 22.0797 9.47578 22.552 11.3648 22.552H11.3699C17.5805 22.552 22.75 17.4941 22.75 11.2785C22.75 8.26719 21.4703 5.43867 19.3426 3.30586ZM11.3699 20.6527C9.68398 20.6527 8.03359 20.2008 6.59648 19.3477L6.25625 19.1445L2.71172 20.0738L3.65625 16.6156L3.43281 16.2602C2.49336 14.7672 2.00078 13.0457 2.00078 11.2734C2.00078 6.10898 6.20547 1.9043 11.375 1.9043C13.8785 1.9043 16.2297 2.8793 17.9969 4.65156C19.7641 6.42383 20.8508 8.775 20.8457 11.2785C20.8457 16.448 16.5344 20.6527 11.3699 20.6527ZM16.509 13.6348C16.2297 13.4926 14.8434 12.8121 14.5844 12.7207C14.3254 12.6242 14.1375 12.5785 13.9496 12.8629C13.7617 13.1473 13.2234 13.777 13.0559 13.9699C12.8934 14.1578 12.7258 14.1832 12.4465 14.041C10.791 13.2133 9.7043 12.5633 8.6125 10.6895C8.32305 10.1918 8.90195 10.2273 9.44023 9.15078C9.53164 8.96289 9.48594 8.80039 9.41484 8.6582C9.34375 8.51602 8.78008 7.12969 8.54648 6.56602C8.31797 6.01758 8.08438 6.09375 7.91172 6.08359C7.74922 6.07344 7.56133 6.07344 7.37344 6.07344C7.18555 6.07344 6.88086 6.14453 6.62187 6.42383C6.36289 6.7082 5.63672 7.38867 5.63672 8.775C5.63672 10.1613 6.64727 11.502 6.78438 11.6898C6.92656 11.8777 8.76992 14.7215 11.5984 15.9453C13.3859 16.7172 14.0867 16.7832 14.9805 16.6512C15.5238 16.5699 16.6461 15.9707 16.8797 15.3105C17.1133 14.6504 17.1133 14.0867 17.0422 13.9699C16.9762 13.843 16.7883 13.7719 16.509 13.6348Z" fill="#333333"/>
</svg>
