<svg width="34" height="34" fill="none" xmlns="http://www.w3.org/2000/svg"><g filter="url('#filter0_d_3640_91978')"><circle cx="17" cy="17" r="15" fill="#fff"/><path d="M12.621 10.335h2.887a.625.625 0 0 1 .085 1.244l-.085.006H12.62c-.992 0-1.805.77-1.87 1.746l-.005.129v7.916c0 .993.771 1.805 1.747 1.871l.128.004h7.917c.993 0 1.805-.77 1.871-1.746l.004-.129v-.415a.625.625 0 0 1 1.245-.084l.005.085v.414c0 1.67-1.31 3.035-2.959 3.12l-.166.005h-7.917a3.125 3.125 0 0 1-3.12-2.959l-.005-.166V13.46c0-1.67 1.31-3.035 2.96-3.121l.165-.004h2.887-2.887Zm6.462 2.1v-2.309c0-.52.589-.8.989-.508l.068.057 4.996 4.792a.625.625 0 0 1 .064.831l-.064.07-4.996 4.794a.625.625 0 0 1-1.051-.362l-.006-.089V17.44l-.286.025c-2 .209-3.917 1.11-5.763 2.717a.625.625 0 0 1-1.03-.548c.554-4.433 2.872-6.877 6.83-7.183l.249-.017v-2.308 2.309Zm1.25-.843v1.45c0 .346-.28.626-.625.626-3.228 0-5.229 1.397-6.093 4.297l-.066.233.294-.198c1.863-1.218 3.821-1.832 5.865-1.832.316 0 .578.235.619.54l.006.085v1.452l3.467-3.327-3.467-3.326Z" fill="#333"/></g><defs><filter id="filter0_d_3640_91978" x="0" y="0" width="34" height="34" filterUnits="userSpaceOnUse" color-interpolation-filters="sRGB"><feFlood flood-opacity="0" result="BackgroundImageFix"/><feColorMatrix in="SourceAlpha" values="0 0 0 0 0 0 0 0 0 0 0 0 0 0 0 0 0 0 127 0" result="hardAlpha"/><feOffset/><feGaussianBlur stdDeviation="1"/><feComposite in2="hardAlpha" operator="out"/><feColorMatrix values="0 0 0 0 0 0 0 0 0 0 0 0 0 0 0 0 0 0 0.25 0"/><feBlend in2="BackgroundImageFix" result="effect1_dropShadow_3640_91978"/><feBlend in="SourceGraphic" in2="effect1_dropShadow_3640_91978" result="shape"/></filter></defs></svg>