<svg width="26" height="26" fill="none" xmlns="http://www.w3.org/2000/svg"><path d="m5.961 5.013-.003 2.3v11.38a3.52 3.52 0 0 0 3.52 3.52h9.335a2.439 2.439 0 0 1-2.299 1.625H9.48a5.146 5.146 0 0 1-5.146-5.146V7.312c0-1.062.68-1.965 1.628-2.3Zm13.268-2.846a2.437 2.437 0 0 1 2.437 2.437v14.084a2.437 2.437 0 0 1-2.437 2.437h-9.75a2.437 2.437 0 0 1-2.438-2.437V4.604A2.438 2.438 0 0 1 9.48 2.167h9.75Zm0 1.625h-9.75a.813.813 0 0 0-.813.812v14.084c0 .449.364.812.813.812h9.75a.812.812 0 0 0 .812-.812V4.604a.812.812 0 0 0-.812-.812Z" fill="#333"/></svg>