<svg width="243" height="38" fill="none" xmlns="http://www.w3.org/2000/svg"><g clip-path="url('#clip0_6659_48045')"><path fill="#fff" d="M0 0h242.5v38H0z"/><path d="M63.38 22.356v12.467h-6.446V23.255c0-2.517-1.642-3.716-3.727-3.716-2.338 0-3.981 1.319-3.981 4.195v11.089h-6.445V14.504h6.445v1.918c1.137-1.498 3.286-2.457 6.129-2.457 4.36 0 8.024 2.877 8.024 8.391ZM74.115 20.08v7.192c0 1.738 1.58 1.918 4.422 1.738v5.514c-8.403.84-10.867-1.558-10.867-7.252V20.08h-3.412v-5.874h3.412V10.37l6.445-1.858v5.694h4.422v5.873h-4.422ZM100.969 22.355v12.467h-6.445V23.254c0-2.518-1.642-3.716-3.728-3.716-2.337 0-3.98 1.318-3.98 4.195v11.089H80.37V6.352h6.445V16.42c1.137-1.498 3.285-2.457 6.129-2.457 4.36 0 8.024 2.876 8.024 8.39ZM123.84 14.504v20.318h-6.445v-1.918c-1.137 1.499-3.285 2.458-6.128 2.458-4.297 0-8.025-2.937-8.025-8.391V14.504h6.445v11.568c0 2.517 1.643 3.716 3.728 3.716 2.338 0 3.98-1.319 3.98-4.196V14.504h6.445Z" fill="#333"/><path d="M145.008 9.05c0-1.977 1.768-3.655 3.853-3.655s3.855 1.678 3.855 3.656c0 1.978-1.77 3.656-3.855 3.656s-3.853-1.678-3.853-3.656Zm.631 5.455h6.445v20.319h-6.445v-20.32ZM176.979 14.506v20.318h-6.445v-1.918c-1.389 1.559-3.537 2.458-6.381 2.458-5.624 0-10.235-4.675-10.235-10.729 0-6.054 4.611-10.729 10.235-10.729 2.844 0 4.992.96 6.381 2.458v-1.918h6.445v.06Zm-6.445 10.189c0-3.057-2.148-4.975-5.117-4.975s-5.118 1.918-5.118 4.975c0 3.057 2.149 4.975 5.118 4.975 2.969-.06 5.117-1.918 5.117-4.975ZM196.563 28.468c0 4.676-4.296 6.653-8.909 6.653-4.297 0-7.519-1.558-9.224-4.854l5.56-2.997c.568 1.558 1.769 2.397 3.664 2.397 1.517 0 2.338-.42 2.338-1.258 0-2.218-10.551-1.08-10.551-8.092 0-4.435 3.916-6.653 8.403-6.653 3.475 0 6.571 1.439 8.341 4.376l-5.497 2.817c-.633-1.08-1.454-1.799-2.844-1.799-1.138 0-1.769.42-1.769 1.14-.063 2.277 10.488.778 10.488 8.27ZM206.927 20.38v7.193c0 1.738 1.579 1.918 4.423 1.738v5.514c-8.404.84-10.868-1.558-10.868-7.252V20.38h-3.412v-5.873h3.412V10.67l6.445-1.858v5.694h4.423v5.873h-4.423ZM212.551 9.05c0-1.977 1.768-3.655 3.853-3.655s3.855 1.678 3.855 3.656c0 1.978-1.77 3.656-3.855 3.656s-3.853-1.678-3.853-3.656Zm.631 5.455h6.445v20.319h-6.445v-20.32ZM221.461 24.694c0-6.054 4.866-10.73 11.374-10.73 4.17 0 7.835 2.099 9.667 5.215l-5.624 3.117c-.758-1.438-2.275-2.277-4.17-2.277-2.779 0-4.864 1.918-4.864 4.734 0 2.817 2.085 4.735 4.864 4.735 1.895 0 3.476-.839 4.17-2.277l5.624 3.057c-1.832 3.176-5.497 5.214-9.667 5.214-6.508-.06-11.374-4.735-11.374-10.788ZM135.34 29.128l3.222-4.195 4.865-6.354v-4.075h-16.301v5.694h7.645l-2.4 3.177-.443.599-5.244 6.833v4.075h17.122v-5.694h-8.466v-.06Z" fill="#6300DF"/><path d="M134.833 20.198h-7.708v-5.694h12.131" fill="#FF1472"/><path d="M27.354 3.896c-.252 1.678-1.832 2.877-3.601 2.637-1.77-.24-3.033-1.738-2.844-3.416C21.1 1.439 22.742.24 24.511.48c1.832.18 3.033 1.738 2.843 3.416Z" fill="#6300DF"/><path d="m30.521 32.065 5.244-3.836 4.423-3.177c.064 0 .063-.06.127-.06 1.453-1.019 1.58-2.937.505-4.315-.632-.78-1.516-1.199-2.464-1.199-.695 0-1.453.18-2.085.66-.19.18-.38.3-.569.539L27.11 26.97l-.063.06c-.442.3-2.274 1.439-3.475 1.558-.885.18-1.832.24-2.78.12-.948-.12-1.896-.42-2.654-.839l11.247-8.211 5.37-3.956v-.06a13.038 13.038 0 0 0-3.854-4.735C28.878 9.35 26.414 8.27 23.697 7.97c-2.78-.36-5.433.12-7.771 1.14a13.784 13.784 0 0 0-5.055 3.715c-1.643 1.918-2.78 4.256-3.16 6.893-.378 2.577.127 5.095 1.138 7.312l-1.264.78-6.255 4.735-.063.06a3.147 3.147 0 0 0-1.2 1.977c-.19 1.619 1.01 3.117 2.716 3.357.885.12 1.706-.12 2.338-.6l7.52-5.454c1.326 1.02 2.78 1.858 4.485 2.398.885.3 1.833.48 2.78.599 2.78.36 5.434-.12 7.772-1.139.821-.36 1.643-.779 2.4-1.319.064 0 .127-.06.19-.12l.253-.24ZM13.967 20.497c.126-.899.442-1.798.885-2.517 1.01-1.858 2.906-3.237 5.054-3.716.885-.24 1.833-.3 2.78-.18.948.12 1.896.42 2.654.839l-11.183 8.211a6.163 6.163 0 0 1-.19-2.637ZM4.427 37.58l-.064.06.063-.06Z" fill="#FF1472"/><path d="m43.152 9.411-7.266 5.395c-.948-1.798-2.274-3.476-3.917-4.795l7.076-5.155c.127-.06.19-.12.316-.18.569-.36 1.264-.479 2.022-.42 1.77.24 2.97 1.74 2.717 3.357-.126.78-.442 1.379-.948 1.798Z" fill="#FFBF00"/><path d="M14.148 8.39c-1.895.96-3.538 2.338-4.865 3.956L3.281 4.854c-.127-.12-.19-.24-.253-.3-.316-.6-.505-1.258-.379-1.918C2.839.958 4.419-.18 6.187 0c.758.06 1.39.42 1.833.9l.063-.06 6.065 7.551Z" fill="#23A8E2"/></g><defs><clipPath id="clip0_6659_48045"><path fill="#fff" d="M0 0h242.5v38H0z"/></clipPath></defs></svg>