<svg width="228" height="40" fill="none" xmlns="http://www.w3.org/2000/svg"><g clip-path="url('#clip0_3640_92111')"><path fill="#6300DF" d="M0 0h228v40H0z"/><path d="M59.585 23.532v13.123h-6.06V24.478c0-2.65-1.544-3.911-3.504-3.911-2.198 0-3.743 1.388-3.743 4.416v11.672h-6.06V15.267h6.06v2.019c1.07-1.577 3.09-2.587 5.762-2.587 4.1 0 7.545 3.029 7.545 8.833ZM69.681 21.137v7.572c0 1.83 1.486 2.018 4.159 1.83v5.804c-7.901.883-10.218-1.64-10.218-7.634v-7.572h-3.208v-6.182h3.208v-4.038l6.06-1.956v5.994h4.158v6.182H69.68ZM94.933 23.533v13.123h-6.06V24.479c0-2.65-1.544-3.911-3.505-3.911-2.198 0-3.742 1.388-3.742 4.416v11.672h-6.06V6.688h6.06v10.599c1.07-1.577 3.089-2.587 5.762-2.587 4.1 0 7.545 3.029 7.545 8.833ZM116.437 15.266v21.388h-6.06v-2.02c-1.069 1.578-3.089 2.587-5.762 2.587-4.04 0-7.545-3.091-7.545-8.832V15.266h6.06v12.176c0 2.65 1.544 3.912 3.505 3.912 2.198 0 3.742-1.388 3.742-4.416V15.265h6.06ZM136.336 9.528c0-2.082 1.663-3.848 3.623-3.848 1.96 0 3.625 1.766 3.625 3.848s-1.665 3.849-3.625 3.849-3.623-1.767-3.623-3.849Zm.593 5.742h6.06v21.388h-6.06V15.27ZM166.397 15.268v21.388h-6.059v-2.02c-1.306 1.641-3.326 2.587-6 2.587-5.287 0-9.623-4.92-9.623-11.293 0-6.372 4.336-11.293 9.623-11.293 2.674 0 4.694 1.01 6 2.587v-2.02h6.059v.064Zm-6.059 10.725c0-3.217-2.02-5.236-4.812-5.236-2.792 0-4.811 2.018-4.811 5.236s2.019 5.237 4.811 5.237c2.792-.063 4.812-2.02 4.812-5.237ZM184.807 29.966c0 4.922-4.04 7.004-8.377 7.004-4.039 0-7.069-1.64-8.672-5.11l5.228-3.155c.534 1.64 1.663 2.523 3.444 2.523 1.427 0 2.199-.441 2.199-1.325 0-2.334-9.921-1.135-9.921-8.517 0-4.669 3.683-7.003 7.901-7.003 3.268 0 6.178 1.514 7.842 4.605l-5.168 2.966c-.595-1.136-1.367-1.893-2.674-1.893-1.069 0-1.663.442-1.663 1.199-.059 2.397 9.861.82 9.861 8.706ZM194.557 21.454v7.57c0 1.83 1.484 2.02 4.158 1.83v5.805c-7.902.883-10.218-1.64-10.218-7.634v-7.571h-3.208v-6.183h3.208v-4.038l6.06-1.956v5.994h4.158v6.183h-4.158ZM199.844 9.528c0-2.082 1.663-3.848 3.623-3.848 1.96 0 3.624 1.766 3.624 3.848s-1.664 3.849-3.624 3.849c-1.96 0-3.623-1.767-3.623-3.849Zm.593 5.742h6.06v21.388h-6.06V15.27ZM208.219 25.997c0-6.373 4.575-11.294 10.693-11.294 3.921 0 7.367 2.208 9.089 5.49l-5.287 3.28c-.712-1.514-2.139-2.398-3.921-2.398-2.613 0-4.573 2.02-4.573 4.985 0 2.965 1.96 4.984 4.573 4.984 1.782 0 3.268-.883 3.921-2.398l5.287 3.218c-1.722 3.344-5.168 5.489-9.089 5.489-6.118-.063-10.693-4.984-10.693-11.357ZM127.248 30.66l3.03-4.416 4.573-6.688v-4.29h-15.326v5.993h7.188l-2.257 3.344-.416.631-4.931 7.192v4.29h16.099v-5.993h-7.96v-.063Z" fill="#fff"/><path d="M126.77 21.26h-7.247v-5.994h11.406M25.718 4.101c-.238 1.767-1.723 3.028-3.386 2.776-1.664-.252-2.852-1.83-2.674-3.596.178-1.767 1.723-3.029 3.386-2.776 1.723.19 2.852 1.83 2.674 3.596ZM28.691 33.753l4.93-4.038 4.16-3.343c.059 0 .059-.064.118-.064 1.367-1.072 1.485-3.09.475-4.542-.594-.82-1.425-1.262-2.317-1.262-.653 0-1.366.19-1.96.694-.178.19-.356.316-.535.568l-8.079 6.625-.06.063c-.415.315-2.138 1.514-3.266 1.64a7.24 7.24 0 0 1-2.614.126 6.612 6.612 0 0 1-2.495-.883l10.574-8.643 5.05-4.165v-.063a13.533 13.533 0 0 0-3.624-4.984c-1.901-1.64-4.218-2.776-6.773-3.091-2.613-.379-5.108.126-7.306 1.198-1.842.884-3.446 2.208-4.753 3.912a15.03 15.03 0 0 0-2.97 7.255c-.357 2.713.118 5.363 1.069 7.698l-1.188.82-5.881 4.984-.06.063a3.397 3.397 0 0 0-1.128 2.082c-.179 1.704.95 3.281 2.554 3.533a2.72 2.72 0 0 0 2.198-.63l7.07-5.742c1.247 1.073 2.613 1.956 4.217 2.524.832.315 1.723.505 2.614.63 2.614.38 5.109-.126 7.307-1.198.772-.379 1.544-.82 2.257-1.388.06 0 .12-.063.179-.126l.237-.253ZM13.127 21.577c.119-.947.416-1.893.832-2.65.95-1.956 2.732-3.407 4.752-3.912a6.066 6.066 0 0 1 2.614-.19 6.61 6.61 0 0 1 2.495.884l-10.515 8.644a7.235 7.235 0 0 1-.178-2.776Zm-8.97 17.98-.06.064.06-.063ZM40.577 9.906l-6.831 5.678c-.891-1.892-2.139-3.659-3.684-5.047l6.654-5.426c.119-.063.178-.126.297-.189.535-.379 1.188-.505 1.901-.442 1.663.253 2.792 1.83 2.554 3.533-.118.82-.415 1.452-.89 1.893ZM13.302 8.829c-1.782 1.01-3.327 2.46-4.574 4.164L3.084 5.107c-.118-.127-.178-.253-.237-.316-.297-.63-.475-1.325-.357-2.019C2.67 1.006 4.154-.193 5.817-.004 6.53.06 7.124.438 7.54.943L7.6.879l5.702 7.95Z" fill="#fff"/></g><defs><clipPath id="clip0_3640_92111"><path fill="#fff" d="M0 0h228v40H0z"/></clipPath></defs></svg>