<svg width="24" height="24" fill="none" xmlns="http://www.w3.org/2000/svg"><path d="M21.376 1H2.624A1.624 1.624 0 0 0 1 2.624v18.752A1.624 1.624 0 0 0 2.624 23h18.752A1.624 1.624 0 0 0 23 21.376V2.624A1.624 1.624 0 0 0 21.376 1ZM7.557 19.741H4.25V9.235h3.307V19.74ZM5.901 7.78a1.899 1.899 0 1 1 1.91-1.898A1.872 1.872 0 0 1 5.9 7.78ZM19.75 19.75h-3.306v-5.74c0-1.692-.72-2.215-1.649-2.215-.98 0-1.943.74-1.943 2.258v5.697H9.543V9.242h3.181v1.456h.043c.32-.646 1.438-1.75 3.144-1.75 1.846 0 3.84 1.095 3.84 4.303l-.002 6.5Z" fill="#0A66C2"/></svg>