<svg width="38" height="39" fill="none" xmlns="http://www.w3.org/2000/svg"><g clip-path="url('#clip0_6659_48084')"><path d="M.81 19.273c-.002 3.193.839 6.31 2.438 9.058L.656 37.72 10.34 35.2a18.371 18.371 0 0 0 8.728 2.205h.008c10.067 0 18.26-8.128 18.265-18.118.002-4.84-1.896-9.393-5.345-12.817-3.448-3.425-8.034-5.312-12.92-5.314C9.007 1.156.813 9.284.809 19.273" fill="url('#paint0_linear_6659_48084')"/><path d="M.159 19.267a18.623 18.623 0 0 0 2.525 9.383L0 38.373l10.03-2.61a19.027 19.027 0 0 0 9.041 2.285h.009c10.427 0 18.916-8.42 18.92-18.767.002-5.015-1.965-9.73-5.537-13.278C28.891 2.457 24.141.502 19.08.5 8.65.5.163 8.919.159 19.267Zm5.973 8.892-.375-.59a15.469 15.469 0 0 1-2.404-8.301c.004-8.6 7.058-15.598 15.732-15.598 4.201.001 8.15 1.626 11.118 4.574 2.97 2.949 4.604 6.868 4.603 11.037-.004 8.6-7.059 15.599-15.726 15.599h-.007a15.801 15.801 0 0 1-8.004-2.175l-.574-.338-5.952 1.548 1.589-5.756Z" fill="url('#paint1_linear_6659_48084')"/><path d="M14.35 11.42c-.354-.782-.727-.798-1.064-.811-.276-.012-.59-.011-.906-.011-.315 0-.827.117-1.26.586-.434.47-1.655 1.605-1.655 3.913 0 2.307 1.694 4.538 1.93 4.851.237.313 3.27 5.2 8.076 7.08 3.993 1.563 4.806 1.253 5.673 1.174.867-.078 2.797-1.134 3.19-2.23.395-1.095.395-2.034.277-2.23-.118-.195-.434-.313-.907-.547-.472-.235-2.797-1.37-3.23-1.526-.433-.157-.748-.235-1.064.235-.315.469-1.22 1.525-1.496 1.838-.276.314-.552.353-1.024.118-.474-.235-1.996-.73-3.802-2.328-1.406-1.243-2.355-2.779-2.63-3.248-.276-.47-.03-.724.207-.957.213-.21.473-.548.71-.822.235-.274.314-.47.472-.782.157-.313.078-.587-.04-.822s-1.037-2.554-1.457-3.482Z" fill="#fff"/></g><defs><linearGradient id="paint0_linear_6659_48084" x1="18.998" y1="37.719" x2="18.998" y2="1.156" gradientUnits="userSpaceOnUse"><stop stop-color="#1FAF38"/><stop offset="1" stop-color="#60D669"/></linearGradient><linearGradient id="paint1_linear_6659_48084" x1="19" y1="38.374" x2="19" y2=".5" gradientUnits="userSpaceOnUse"><stop stop-color="#F9F9F9"/><stop offset="1" stop-color="#fff"/></linearGradient><clipPath id="clip0_6659_48084"><path fill="#fff" transform="translate(0 .5)" d="M0 0h38v38H0z"/></clipPath></defs></svg>