<svg width="26" height="26" fill="none" xmlns="http://www.w3.org/2000/svg"><path d="M5.688 4.333h14.625a3.521 3.521 0 0 1 3.515 3.321l.006.2v10.291a3.521 3.521 0 0 1-3.321 3.516l-.2.005H5.688a3.521 3.521 0 0 1-3.515-3.32l-.006-.2V7.853a3.521 3.521 0 0 1 3.321-3.515l.2-.006h14.625H5.688Zm16.52 5.82-8.83 4.649a.813.813 0 0 1-.652.046l-.104-.046-8.83-4.647v7.99c0 .995.766 1.811 1.74 1.89l.156.006h14.625c.995 0 1.81-.766 1.89-1.74l.006-.155v-7.992Zm-1.895-4.195H5.688c-.995 0-1.81.766-1.89 1.74l-.006.156v.465L13 13.165l9.209-4.847v-.464c0-.995-.766-1.81-1.74-1.89l-.156-.006Z" fill="#333"/></svg>