<svg width="30" height="30" fill="none" xmlns="http://www.w3.org/2000/svg"><path d="M21.25 25h6.25v-2.5a3.75 3.75 0 0 0-6.695-2.321M21.25 25H8.75m12.5 0v-2.5c0-.82-.157-1.604-.445-2.321m0 0a6.253 6.253 0 0 0-11.61 0M8.75 25H2.5v-2.5a3.75 3.75 0 0 1 6.695-2.321M8.75 25v-2.5c0-.82.158-1.604.445-2.321M18.75 8.75a3.75 3.75 0 1 1-7.5 0 3.75 3.75 0 0 1 7.5 0Zm7.5 3.75a2.5 2.5 0 1 1-5 0 2.5 2.5 0 0 1 5 0Zm-17.5 0a2.5 2.5 0 1 1-5 0 2.5 2.5 0 0 1 5 0Z" stroke="#333" stroke-width="2" stroke-linecap="round" stroke-linejoin="round"/></svg>