<svg width="23" height="23" fill="none" xmlns="http://www.w3.org/2000/svg"><path d="M19.343 3.306A11.189 11.189 0 0 0 11.37 0C5.154 0 .096 5.058.096 11.273c0 1.986.518 3.926 1.504 5.637L0 22.75l5.977-1.57a11.24 11.24 0 0 0 5.388 1.372h.005c6.21 0 11.38-5.058 11.38-11.274 0-3.01-1.28-5.84-3.407-7.972ZM11.37 20.653a9.354 9.354 0 0 1-4.774-1.305l-.34-.203-3.544.929.944-3.458-.223-.356A9.34 9.34 0 0 1 2 11.273c0-5.164 4.204-9.369 9.374-9.369 2.504 0 4.855.975 6.622 2.748 1.767 1.772 2.854 4.123 2.849 6.626 0 5.17-4.312 9.375-9.476 9.375Zm5.139-7.018c-.28-.142-1.666-.823-1.925-.914-.259-.097-.447-.143-.634.142-.188.284-.727.914-.894 1.107-.163.188-.33.213-.61.071-1.655-.828-2.742-1.478-3.833-3.351-.29-.498.289-.463.827-1.54.092-.187.046-.35-.025-.492-.071-.142-.635-1.528-.869-2.092-.228-.548-.462-.472-.634-.482-.163-.01-.35-.01-.539-.01-.187 0-.492.07-.751.35-.26.284-.985.965-.985 2.351 0 1.386 1.01 2.727 1.147 2.915.143.188 1.986 3.032 4.814 4.255 1.788.772 2.489.838 3.382.706.544-.081 1.666-.68 1.9-1.34.233-.66.233-1.224.162-1.341-.066-.127-.254-.198-.533-.335Z" fill="#333"/></svg>