<svg width="20" height="21" viewBox="0 0 20 21" fill="none" xmlns="http://www.w3.org/2000/svg">
<path fill-rule="evenodd" clip-rule="evenodd" d="M5.29279 7.79259C5.48031 7.60512 5.73462 7.49981 5.99979 7.49981C6.26495 7.49981 6.51926 7.60512 6.70679 7.79259L9.99979 11.0856L13.2928 7.79259C13.385 7.69708 13.4954 7.6209 13.6174 7.56849C13.7394 7.51608 13.8706 7.4885 14.0034 7.48734C14.1362 7.48619 14.2678 7.51149 14.3907 7.56177C14.5136 7.61205 14.6253 7.68631 14.7192 7.7802C14.8131 7.87409 14.8873 7.98574 14.9376 8.10864C14.9879 8.23154 15.0132 8.36322 15.012 8.49599C15.0109 8.62877 14.9833 8.75999 14.9309 8.882C14.8785 9.004 14.8023 9.11435 14.7068 9.20659L10.7068 13.2066C10.5193 13.3941 10.265 13.4994 9.99979 13.4994C9.73462 13.4994 9.48031 13.3941 9.29279 13.2066L5.29279 9.20659C5.10532 9.01907 5 8.76476 5 8.49959C5 8.23443 5.10532 7.98012 5.29279 7.79259Z" fill="#717171"></path>
</svg>
